<?xml version="1.0" standalone="no"?>
<!DOCTYPE svg PUBLIC "-//W3C//DTD SVG 20010904//EN"
 "http://www.w3.org/TR/2001/REC-SVG-20010904/DTD/svg10.dtd">
<svg version="1.0" xmlns="http://www.w3.org/2000/svg"
 width="860.000000pt" height="245.000000pt" viewBox="0 0 860.000000 245.000000"
 preserveAspectRatio="xMidYMid meet">

<g transform="translate(0.000000,245.000000) scale(0.100000,-0.100000)"
fill="#000000" stroke="none">
<path d="M1124 2036 c-114 -22 -183 -45 -281 -93 -256 -127 -444 -363 -515
-649 -33 -133 -31 -332 6 -469 78 -296 291 -540 573 -659 68 -28 103 -32 121
-14 8 8 12 48 12 112 l0 101 -97 0 c-141 0 -194 32 -244 144 -12 27 -45 70
-82 104 -49 46 -58 60 -47 67 45 28 128 -13 190 -95 71 -93 146 -122 241 -93
33 9 41 17 49 47 5 20 19 49 30 66 l19 30 -78 17 c-244 52 -361 201 -361 457
0 95 19 163 65 229 31 46 33 54 23 82 -12 36 -6 151 11 193 9 24 16 27 56 27
34 0 67 -11 137 -48 l93 -47 60 13 c79 17 284 16 364 -1 l63 -14 55 33 c59 35
129 61 178 66 24 2 32 -2 44 -26 18 -37 26 -150 14 -195 -8 -31 -5 -41 24 -84
44 -65 63 -135 63 -229 0 -260 -125 -413 -375 -459 l-64 -12 27 -46 c26 -45
27 -50 30 -236 2 -121 8 -195 15 -203 18 -22 80 -8 180 42 459 228 665 772
472 1247 -113 280 -365 499 -662 575 -121 31 -303 40 -409 20z"/>
<path d="M3125 1725 c-236 -53 -371 -191 -436 -445 -33 -130 -38 -427 -10
-565 52 -254 186 -403 420 -467 104 -29 342 -31 446 -4 86 23 196 71 213 93 9
13 12 103 12 369 0 194 -3 359 -6 368 -5 14 -38 16 -260 16 l-254 0 0 -135 0
-135 100 0 101 0 -3 -147 -3 -148 -75 -5 c-254 -18 -362 80 -392 357 -28 252
37 455 168 525 96 52 280 60 430 18 44 -12 66 -14 71 -7 4 6 19 63 34 126 19
82 24 120 17 128 -15 18 -123 50 -213 62 -103 15 -286 12 -360 -4z"/>
<path d="M5155 1678 c-3 -7 -4 -330 -3 -718 l3 -705 150 0 150 0 3 308 2 307
208 -2 207 -3 3 -308 2 -308 153 3 152 3 3 712 2 713 -22 5 c-13 3 -81 4 -153
3 l-130 -3 -3 -267 -2 -268 -210 0 -210 0 0 264 c0 231 -2 265 -16 270 -9 3
-76 6 -150 6 -99 0 -136 -3 -139 -12z"/>
<path d="M7371 1676 c-8 -9 -10 -205 -9 -717 l3 -704 110 0 110 0 10 32 10 31
40 -24 c78 -47 162 -68 270 -68 122 0 185 19 249 75 85 75 124 193 133 401 10
227 -21 357 -108 452 -74 81 -127 101 -264 100 -92 0 -120 -4 -170 -25 -33
-13 -64 -24 -68 -24 -5 0 -10 105 -12 233 -2 128 -7 237 -10 242 -10 16 -280
13 -294 -4z m548 -695 c49 -34 66 -86 69 -212 5 -134 -10 -218 -43 -257 -22
-26 -27 -27 -117 -27 -70 0 -101 5 -125 18 l-33 18 0 219 0 219 31 16 c70 37
172 39 218 6z"/>
<path d="M4032 1647 c-80 -16 -143 -111 -128 -192 16 -81 90 -145 168 -145 57
0 96 17 131 59 110 131 -2 313 -171 278z"/>
<path d="M4490 1366 l0 -144 -77 -18 -78 -19 0 -105 0 -105 77 -3 77 -3 3
-262 c3 -251 4 -264 27 -314 49 -109 151 -164 306 -166 50 -1 114 5 143 12
l53 13 -3 112 -3 111 -82 5 c-69 4 -86 9 -107 29 l-26 24 0 218 0 218 108 3
107 3 0 125 0 125 -107 3 -107 3 -3 137 -3 137 -152 3 -153 3 0 -145z"/>
<path d="M3925 1218 c-3 -7 -4 -227 -3 -488 l3 -475 150 0 150 0 0 485 0 485
-148 3 c-112 2 -149 0 -152 -10z"/>
<path d="M6327 1224 c-4 -4 -7 -170 -7 -369 0 -388 6 -443 53 -509 63 -89 137
-119 297 -120 122 -1 172 10 274 61 50 25 61 23 68 -12 3 -18 12 -20 102 -23
73 -2 102 1 108 10 4 7 8 220 8 474 0 354 -3 464 -13 477 -11 15 -29 17 -152
15 l-140 -3 -5 -350 -5 -350 -45 -23 c-48 -24 -155 -31 -190 -12 -42 23 -45
41 -50 395 l-5 340 -146 3 c-80 1 -148 -1 -152 -4z"/>
<path d="M650 650 c0 -5 5 -10 10 -10 6 0 10 5 10 10 0 6 -4 10 -10 10 -5 0
-10 -4 -10 -10z"/>
<path d="M690 615 c0 -8 7 -15 16 -15 14 0 14 3 4 15 -7 8 -14 15 -16 15 -2 0
-4 -7 -4 -15z"/>
<path d="M730 567 c0 -19 16 -31 24 -18 3 5 -1 14 -9 21 -12 10 -15 10 -15 -3z"/>
<path d="M772 508 c3 -7 13 -15 22 -16 12 -3 17 1 14 10 -3 7 -13 15 -22 16
-12 3 -17 -1 -14 -10z"/>
<path d="M840 466 c0 -10 9 -16 21 -16 24 0 21 23 -4 28 -10 2 -17 -3 -17 -12z"/>
<path d="M996 461 c-3 -5 0 -11 8 -14 15 -6 26 1 26 15 0 11 -27 10 -34 -1z"/>
<path d="M920 450 c0 -5 9 -10 20 -10 11 0 20 5 20 10 0 6 -9 10 -20 10 -11 0
-20 -4 -20 -10z"/>
</g>
</svg>
